<?xml version="1.0" encoding="UTF-8"?>
<svg width="256px" height="256px" viewBox="0 0 256 256" version="1.1" xmlns="http://www.w3.org/2000/svg" xmlns:xlink="http://www.w3.org/1999/xlink">
    <title>SideScribe Logo @offset -2px</title>
    <defs>
        <linearGradient x1="0%" y1="0%" x2="100%" y2="100%" id="linearGradient-1">
            <stop stop-color="color(display-p3 0.019 0.728 0.899)" offset="0%"></stop>
            <stop stop-color="color(display-p3 0.008 0.518 0.780)" offset="100%"></stop>
        </linearGradient>
    </defs>
    <g id="SideScribe-Logo-@offset--2px" stroke="none" fill="none" fill-rule="evenodd">
        <path d="M79.4804412,-3.62733656e-15 L176.519559,3.62733656e-15 C204.15664,-2.107587e-15 214.178513,2.87759395 224.282217,8.28111382 C234.385921,13.6846337 242.315366,21.6140795 247.718886,31.7177832 C253.122406,41.8214869 256,51.8433603 256,79.4804412 L256,176.519559 C256,204.15664 253.122406,214.178513 247.718886,224.282217 C242.315366,234.385921 234.385921,242.315366 224.282217,247.718886 C214.178513,253.122406 204.15664,256 176.519559,256 L79.4804412,256 C51.8433603,256 41.8214869,253.122406 31.7177832,247.718886 C21.6140795,242.315366 13.6846337,234.385921 8.28111382,224.282217 C2.87759395,214.178513 0,204.15664 0,176.519559 L3.62733656e-15,79.4804412 C-2.107587e-15,51.8433603 2.87759395,41.8214869 8.28111382,31.7177832 C13.6846337,21.6140795 21.6140795,13.6846337 31.7177832,8.28111382 C41.8214869,2.87759395 51.8433603,2.107587e-15 79.4804412,-3.62733656e-15 Z" id="Rectangle" fill="url(#linearGradient-1)"></path>
        <g id="Layer_1" stroke-width="1" transform="translate(65, 48)" fill="color(display-p3 1.000 1.000 1.000)">
            <path d="M18.4557514,73.1972564 L17.7679413,72.7080407 C6.53811835,64.6558136 0.744640798,54.2368399 0.0568306774,40.8296835 C-0.736796385,25.4392199 6.82911494,11.4502934 19.7784632,4.32360962 C24.9899476,1.45442525 30.4395201,0 35.942001,0 L84.9484721,0.0396661433 C103.823569,0.0528881911 119.127344,15.2846872 120.542646,35.4747542 C121.032049,42.3369969 117.698816,45.2326254 114.828531,46.4622758 C113.743907,46.9250475 112.606375,47.1498223 111.429162,47.1498223 C109.696409,47.1498223 108.029793,46.6341625 106.588037,45.6425089 C104.670105,44.3335262 102.738945,41.6230064 102.738945,38.5422692 C102.738945,26.9465333 93.5593258,17.8629865 81.8797808,17.8629865 L36.7488552,17.981985 C29.7913913,17.995207 23.4159206,21.7899347 20.0826869,27.8720767 C15.1754262,36.823403 16.7759075,47.890257 24.0640493,55.4136022 L24.8444493,56.2201471 L77.4486964,56.2598132 C79.5650352,56.2598132 81.56233,57.1324684 83.0834485,58.7058921 C84.710384,60.3850921 85.6230551,62.7386166 85.5569195,64.9863648 C85.384967,69.9446327 81.6416927,73.2765887 76.2582558,73.2765887 L18.4689785,73.2237005 L18.4557514,73.1972564 Z" id="Path"></path>
            <path d="M33.9976147,159.603339 C25.0825374,159.563672 16.617182,155.464838 10.1491215,148.060491 C3.94560328,140.973473 0.294918796,131.599041 0.136193384,122.35683 C0.030376442,116.578795 3.69428805,112.466738 9.0380436,112.360962 L9.0380436,112.360962 C11.5115146,112.360962 13.7468975,113.286505 15.3870601,114.952483 C17.1330396,116.73746 18.072165,119.183539 18.0324836,121.854392 C17.9398938,127.367986 20.0562327,132.74936 23.8524154,136.610198 C27.3311474,140.153706 31.9209572,142.110569 36.8017637,142.123791 L118.571805,142.295678 C121.812449,142.295678 123.87588,144.173209 124.815005,145.297083 C126.587439,147.399388 127.328157,150.176019 126.865208,152.886538 C126.177398,156.879597 122.72512,160 119.0083,160 L34.024069,159.616561 L33.9976147,159.603339 Z" id="Path"></path>
            <path d="M54.8303251,102.774977 L34.473791,86.0490869 L96.8264238,86.0490869 C98.7311288,86.0490869 100.543244,86.8556318 101.945318,88.3232791 C103.559027,90.0157012 104.458471,92.3692257 104.352654,94.6434179 C104.127793,99.4297992 100.622607,102.774977 95.8079358,102.774977 L54.8303251,102.774977 L54.8303251,102.774977 Z" id="Path"></path>
            <path d="M71.7742629,130.805719 L71.2980867,128.769523 C70.3986427,124.935129 69.1023851,121.444509 67.3299513,118.112553 L65.266521,114.225271 L114.563989,114.264937 C116.323195,114.264937 117.936904,115.005371 119.246388,116.393686 C120.873324,118.125775 121.799222,120.651186 121.666951,122.991488 C121.389181,127.539873 117.831087,130.845385 113.214823,130.845385 L71.7742629,130.805719 L71.7742629,130.805719 Z" id="Path"></path>
        </g>
    </g>
</svg>